<?xml version="1.0" encoding="UTF-8"?>
<svg id="Layer_1" data-name="Layer 1" xmlns="http://www.w3.org/2000/svg" viewBox="0 0 476.2 458.2">
  <defs>
    <style>
      .cls-1 {
        fill: #09090b;
      }

      .cls-2 {
        fill: #c2c7c4;
      }

      .cls-3 {
        fill: #334155;
      }

      .cls-4 {
        fill: #4e5657;
      }

      .cls-5 {
        fill: #fafafa;
      }
    </style>
  </defs>
  <path class="cls-1" d="M476.1,283.2c0,1.1,0,2.2-.1,4.1v17.9c0,2.2,0,3.6.1,5,0,10.1,0,20.1-.1,31.1,0,2.9,0,4.9.1,6.9,0,13.5,0,26.9-.1,40.4-.1,33.6-21.8,61.3-55,69.4-6.2,0-11.7.2-17.1.2H83.3c-9.3,0-18.6-1-27.8-1.5-1.5,0-2.9.3-4.4.4-26.2-8.1-41.9-26-48.8-52.9,0-4.5-.2-8.3-.2-12.1V55.3C7.9,30.1,23.3,13.3,47.1,3.9c1.4-.5,2.8-1,5-1.7,2.5-.4,4.2-.6,6.2-.8,1.7-.3,3.2-.7,5-1.1.8,0,1.3,0,2.1.1,2.5.4,4.7.8,6.8.8h332.4c2.5,0,4.9-.5,7.3-.9v-.3c32.6,4.2,58.1,28.9,63.2,63.3.3,5.1.7,9.4.7,13.7.1,14.4.1,28.8.2,43.2,0,.5,0,.9-.1,2.2,0,3.5,0,6.1.1,8.8v5.1c0,3.9,0,6.9.1,9.9,0,2.1,0,4.1-.1,7.1,0,9.9,0,18.9.1,27.9v14c0,1.7,0,3.5-.1,6.1,0,4.9,0,8.9.1,12.9,0,15.4,0,30.8-.1,47.1,0,2.9,0,4.9.1,6.9,0,1.7,0,3.5-.1,6.1,0,3.5,0,6.2.1,8.9M321.2,292.4c-.4,0-.8-.2-1.8-.7-4.8-.5-9.6-1-15.2-1.5-14.9-4.8-30-9-44.5-14.5-18.5-7-36.4-15.7-55-22.5-22.6-8.2-46-9.3-68.5-.1-45.9,18.8-68.1,55.4-73.9,103.2-.2,1.5.9,3.2,1.3,4.8,1.5-1.1,3.2-1.9,4.4-3.3,7.2-8.5,13.8-17.6,21.5-25.6,18.9-19.6,42.1-28.7,69.5-25.9,16.7,1.7,31.9,8.2,46.2,16.5,10.5,6.1,20.7,12.8,31.1,19.1,17.9,10.9,37.2,18.3,58.1,20,22.2,1.8,43-4,61.6-16.4,23.5-15.6,39.9-37.5,52.9-62.1,4.4-8.4,7.6-17.4,11-26.2.7-1.8.3-4.1.4-6.1-.5,0-.9-.2-1.4-.2-9.1,10.4-20.5,17.8-32.1,25-14.6,9.1-30.4,15.1-48,15.9-.6.1-1.1.2-2.3.5-.4,0-.9,0-2-.2-4.2.1-8.3.3-13.2.4M295.2,159.2c-6.2-1.2-12.6-1.9-18.6-3.6-14.9-4.3-29.6-9.2-44.4-13.7-34.2-10.4-66.6-6.7-96.5,13.4-33.8,22.7-56.6,54.1-71.2,91.7-2.6,6.7-4.9,13.5-6.3,20.5-.6,2.9.8,7.3,2.9,9.3,2.9,2.8,5.2-1.2,7.3-3,11.4-9.7,22.3-20,34.2-29.1,34.3-26.1,72.3-33.7,113.6-20,15.8,5.2,31.2,11.6,46.9,17.2,19.9,7,40,12.4,61.5,9.5,25.9-3.5,48-13.9,64.4-34.6,28.9-36.5,29.3-87.8,8.6-127.9-.9-1.7-3-2.8-4.6-4.2-1.3,1.5-2.7,3.1-4,4.7-.4.5-.5,1.2-.8,1.8-6.5,12.2-12.1,24.9-19.7,36.3-11,16.6-26.8,27.1-47.4,30.5-8.4.4-16.8.9-26,1.4l.1-.2Z"/>
  <path class="cls-4" d="M476.2,180.8c-.2-8.6-.2-17.6-.2-27.1.1,8.6.2,17.6.2,27.1Z"/>
  <path class="cls-4" d="M.4,61.6c0,4.3-.1,9-.4,14.2,0-4.3,0-9,.4-14.2Z"/>
  <path class="cls-4" d="M476.2,213.8c-.2-3.6-.2-7.6-.2-12.1.1,3.6.2,7.6.2,12.1Z"/>
  <path class="cls-4" d="M476.2,145.8c-.2-2.6-.2-5.6-.2-9.1.1,2.6.2,5.7.2,9.1Z"/>
  <path class="cls-4" d="M476.2,282.8c-.2-2.3-.2-5-.2-8.1.1,2.3.2,5,.2,8.1Z"/>
  <path class="cls-4" d="M476.2,194.8c-.1-2.3-.2-5-.2-8.1.1,2.3.2,5,.2,8.1Z"/>
  <path class="cls-4" d="M476.2,267.8c-.2-1.7-.2-3.7-.2-6.1.1,1.6.2,3.7.2,6.1Z"/>
  <path class="cls-4" d="M476.2,347.8c-.2-1.7-.2-3.7-.2-6.1.1,1.6.2,3.7.2,6.1Z"/>
  <path class="cls-4" d="M476.2,309.8c-.1-1.1-.2-2.4-.2-4.2.1,1,.2,2.5.2,4.2Z"/>
  <path class="cls-4" d="M476.2,289.9c-.1-.5-.1-1.2-.1-2.3,0,.4.1,1.3.1,2.3Z"/>
  <path class="cls-5" d="M322.4,157.2c23.1-8.5,35.3-13.7,46.2-30.3,7.6-11.4,13.2-24.2,19.7-36.3.3-.6.4-1.3.8-1.8,1.3-1.6,2.7-3.1,4-4.7,1.5,1.4,3.7,2.5,4.6,4.2,20.7,40.2,20.3,91.4-8.6,127.9-16.3,20.6-38.5,31.1-64.4,34.6-21.5,2.9-41.6-2.5-61.5-9.5-15.7-5.5-31.1-12-46.9-17.2-41.4-13.7-79.3-6.1-113.6,20-11.9,9-22.8,19.4-34.2,29.1-2.1,1.8-4.4,5.8-7.3,3-2.1-2-3.5-6.4-2.9-9.3,1.4-7,3.7-13.8,6.3-20.5,14.6-37.6,37.4-69,71.2-91.7,29.9-20,62.3-23.7,96.5-13.4,14.8,4.5,29.5,9.4,44.4,13.7,13,3,12.8,1.8,19.8,3,9.2-.3,6-.3,25.9-1v.2Z"/>
  <path class="cls-5" d="M335.1,292.4c.4,0,.9,0,1.9-.2,1.1-.1,1.5-.2,1.9-.2,17.4-1,33.1-7,47.8-16.1,11.6-7.2,23-14.6,32.1-25,.5,0,.9.2,1.4.2-.1,2,.3,4.3-.4,6.1-3.5,8.8-6.7,17.8-11,26.2-12.9,24.6-29.3,46.5-52.9,62.1-18.6,12.4-39.4,18.3-61.6,16.4-20.8-1.7-40.2-9.1-58.1-20-10.4-6.3-20.6-13-31.1-19.1-14.3-8.4-29.5-14.9-46.2-16.5-27.4-2.7-50.6,6.4-69.5,25.9-7.7,8-14.3,17.1-21.5,25.6-1.1,1.4-2.9,2.2-4.4,3.3-.5-1.6-1.5-3.3-1.3-4.8,5.8-47.9,28-84.4,73.9-103.2,22.4-9.2,45.9-8,68.5.1,18.6,6.7,36.5,15.5,55,22.5,14.6,5.5,29.7,9.7,45.3,14.6,5.5.7,10.2,1.3,15,1.9.4,0,.8.2,1.9.5,4.8.1,9.1,0,13.3-.3h0Z"/>
  <path class="cls-3" d="M338.4,292.3c-6,1.1-12.4,1.3-19.2.2,6-1.2,12.4-1.2,19.2-.2Z"/>
  <path class="cls-2" d="M319.7,291.9c-4.5-.3-9.2-.9-14.3-1.6,4.4.4,9.2.9,14.3,1.6Z"/>
  <path class="cls-2" d="M58.3,1.4c1.1-.4,2.5-.8,4.3-1.1-1.1.4-2.5.8-4.3,1.1Z"/>
  <path class="cls-2" d="M338.8,291.8c-.3.2-.7.2-1.5.3.2-.1.8-.3,1.5-.3Z"/>
  <path class="cls-3" d="M322.9,292.2c-6,.3-12.5-.3-19.1-2.2,6.1-.4,12.4.4,19.1,2.2Z"/>
  <path class="cls-3" d="M354.5,289.6c-5.8,1.9-12.1,2.9-19,2.8,5.8-2,12.1-2.8,19-2.8Z"/>
</svg>